<svg width="18" height="18" viewBox="0 0 18 18" fill="none" xmlns="http://www.w3.org/2000/svg">
<g clip-path="url(#clip0_363_1189)">
<path d="M9 3.5C5.56091 3.5 2.44216 5.60432 0.140841 9.02231C-0.0469469 9.30233 -0.0469469 9.69355 0.140841 9.97358C2.44216 13.3957 5.56091 15.5 9 15.5C12.4391 15.5 15.5578 13.3957 17.8592 9.97769C18.0469 9.69767 18.0469 9.30645 17.8592 9.02642C15.5578 5.60432 12.4391 3.5 9 3.5ZM9.2467 13.7251C6.96379 13.8857 5.07855 11.7814 5.22215 9.22409C5.33998 7.11565 6.86806 5.40666 8.7533 5.27488C11.0362 5.11428 12.9214 7.2186 12.7778 9.77591C12.6563 11.8802 11.1283 13.5892 9.2467 13.7251ZM9.13256 11.7732C7.90273 11.8596 6.88647 10.7272 6.96747 9.35175C7.03007 8.21517 7.85486 7.29684 8.87113 7.22272C10.101 7.13624 11.1172 8.2687 11.0362 9.64413C10.9699 10.7848 10.1451 11.7032 9.13256 11.7732Z" fill="#8E8E8E"/>
<path d="M1.57227 2.07141L15.9045 16.4037" stroke="#8E8E8E" stroke-width="1.5" stroke-linecap="square"/>
</g>
<defs>
<clipPath id="clip0_363_1189">
<rect width="18" height="17" fill="white" transform="translate(0 0.5)"/>
</clipPath>
</defs>
</svg>
