<svg width="18" height="13" viewBox="0 0 18 13" fill="none" xmlns="http://www.w3.org/2000/svg">
<path d="M9 0.5C5.56091 0.5 2.44216 2.60432 0.140841 6.0223C-0.046947 6.30233 -0.046947 6.69355 0.140841 6.97358C2.44216 10.3957 5.56091 12.5 9 12.5C12.4391 12.5 15.5578 10.3957 17.8592 6.9777C18.047 6.69767 18.047 6.30645 17.8592 6.02642C15.5578 2.60432 12.4391 0.5 9 0.5ZM9.24671 10.7251C6.9638 10.8857 5.07857 8.7814 5.22217 6.22409C5.34 4.11565 6.86806 2.40666 8.7533 2.27488C11.0362 2.11428 12.9214 4.2186 12.7778 6.77591C12.6563 8.88023 11.1283 10.5892 9.24671 10.7251ZM9.13257 8.77316C7.90275 8.85964 6.88646 7.72718 6.96747 6.35175C7.03007 5.21517 7.85486 4.29684 8.87113 4.22272C10.101 4.13624 11.1172 5.2687 11.0362 6.64413C10.9699 7.78483 10.1452 8.70316 9.13257 8.77316Z" fill="#8F8F8F"/>
</svg>
